<?xml version="1.0" encoding="utf-8"?>
<!-- Generator: Adobe Illustrator 16.0.3, SVG Export Plug-In . SVG Version: 6.00 Build 0)  -->
<!DOCTYPE svg PUBLIC "-//W3C//DTD SVG 1.1//EN" "http://www.w3.org/Graphics/SVG/1.1/DTD/svg11.dtd">
<svg version="1.1" id="Layer_1" xmlns="http://www.w3.org/2000/svg" xmlns:xlink="http://www.w3.org/1999/xlink" x="0px" y="0px"
	 width="40px" height="50px" viewBox="6.084 14.392 40 50" enable-background="new 6.084 14.392 40 50" xml:space="preserve">
<title>Logo_WB</title>
<desc>Created with Sketch.</desc>
<path fill="#FFFFFF" d="M35.493,35.796c-1.076,0-2.049,0.421-5.047,2.557v11.555c5.216-5.83,6.696-9.817,6.696-11.861
	c0-1.435-0.66-2.25-1.632-2.25 M30.463,24.193v10.683c3.938-2.301,5.468-4.601,5.468-6.729c0-2.049-2.351-3.735-5.468-3.937
	 M40.241,37.482c0,3.989-2.914,10.583-12.525,19.477c-0.101,0.102-0.205,0.053-0.205-0.049V20.97
	c-0.007-0.077,0.048-0.144,0.124-0.152c0.012,0,0.021,0,0.031,0c6.852,0.458,11.246,3.323,11.246,7.461
	c0,1.72-0.64,3.377-1.792,4.652C39.371,33.547,40.241,35.233,40.241,37.482 M24.654,56.91c0,0.102-0.104,0.152-0.207,0.05
	c-2.809-3.222-4.702-7.149-5.98-11.452l-1.943,1.229c-0.509,0.357-0.92,0.206-1.228-0.358c-2.604-4.602-4.294-12.167-4.445-17.484
	c-0.008-0.247,0.084-0.486,0.256-0.664c0.698-0.833,1.449-1.619,2.25-2.352c0.152-0.156,0.303-0.05,0.303,0.201
	c0,6.545,1.126,12.617,2.915,16.619c0.156,0.306,0.307,0.306,0.513,0.15l0.563-0.357c-1.076-4.752-1.683-11.091-1.536-18.405
	c0-0.253,0.051-0.358,0.203-0.459c0.786-0.482,1.605-0.904,2.456-1.263c0.256-0.1,0.307-0.049,0.307,0.156
	c-0.156,10.633,0.714,17.992,2.607,23.873c0.052,0.151,0.203,0.102,0.203-0.05c-0.102-2.149-0.102-4.038-0.102-6.339l-0.101-18.38
	c0-0.206,0.052-0.306,0.253-0.357c0.841-0.207,1.695-0.36,2.557-0.458c0.073-0.012,0.142,0.037,0.155,0.11
	c0.002,0.013,0.003,0.027,0,0.041V56.91z M45.616,28.553c0.006-1.664-0.148-3.324-0.457-4.959c-0.052-0.206-0.104-0.281-0.205-0.307
	l-3.681-0.971l-0.514-2.103c-0.024-0.101-0.051-0.178-0.15-0.202l-3.786-1.022l-0.458-1.99c-0.006-0.121-0.09-0.224-0.206-0.257
	l-9.831-1.824c-0.16-0.029-0.326-0.029-0.488,0l-9.829,1.825c-0.117,0.032-0.2,0.136-0.206,0.258l-0.459,1.993l-3.785,1.022
	c-0.101,0.025-0.126,0.101-0.151,0.201l-0.513,2.104l-3.68,0.989C7.115,23.334,7.06,23.41,7.01,23.616
	c-0.307,1.628-0.461,3.281-0.458,4.937c0,14.72,7.668,27.512,19.124,35.128c0.168,0.227,0.487,0.271,0.712,0.104
	c0.04-0.03,0.074-0.063,0.104-0.104C37.949,56.065,45.616,43.279,45.616,28.553"/>
</svg>
